<svg width="32" height="30" viewBox="0 0 32 30" fill="none" xmlns="http://www.w3.org/2000/svg">
<path d="M31.3826 27.1125L25.0545 11.7844C24.9376 11.5013 24.7393 11.2593 24.4848 11.089C24.2302 10.9187 23.9309 10.8278 23.6246 10.8278C23.3184 10.8278 23.019 10.9187 22.7645 11.089C22.51 11.2593 22.3117 11.5013 22.1948 11.7844L15.8667 27.1125C15.788 27.3005 15.7473 27.5021 15.7467 27.7059C15.7462 27.9097 15.786 28.1116 15.8637 28.2999C15.9415 28.4883 16.0557 28.6595 16.1997 28.8036C16.3438 28.9477 16.515 29.0619 16.7033 29.1396C16.8917 29.2174 17.0936 29.2572 17.2973 29.2567C17.5011 29.2562 17.7028 29.2154 17.8908 29.1368C18.0788 29.0581 18.2493 28.9431 18.3927 28.7983C18.5361 28.6535 18.6495 28.4818 18.7263 28.293L20.0152 25.1719H27.2341L28.523 28.293C28.6398 28.5762 28.8381 28.8184 29.0927 28.9887C29.3473 29.1591 29.6468 29.25 29.9531 29.25C30.2073 29.2498 30.4575 29.1871 30.6817 29.0672C30.9058 28.9473 31.097 28.7741 31.2382 28.5627C31.3795 28.3514 31.4665 28.1085 31.4915 27.8556C31.5166 27.6026 31.4789 27.3474 31.3819 27.1125H31.3826ZM21.2927 22.0781L23.625 16.4285L25.9573 22.0781H21.2927ZM16.5825 20.7366C16.8228 20.4046 16.9216 19.9909 16.8571 19.5861C16.7927 19.1814 16.5702 18.8188 16.2387 18.578C16.2246 18.5674 15.184 17.7954 13.673 16.136C16.4609 12.3616 18.0401 8.06766 18.6841 6.04688H20.9531C21.3634 6.04688 21.7568 5.8839 22.0469 5.59381C22.337 5.30371 22.5 4.91026 22.5 4.5C22.5 4.08974 22.337 3.69629 22.0469 3.40619C21.7568 3.1161 21.3634 2.95312 20.9531 2.95312H12.7969V1.54688C12.7969 1.13662 12.6339 0.743164 12.3438 0.453069C12.0537 0.162974 11.6603 0 11.25 0C10.8397 0 10.4463 0.162974 10.1562 0.453069C9.8661 0.743164 9.70312 1.13662 9.70312 1.54688V2.95312H1.54688C1.13662 2.95312 0.743164 3.1161 0.453069 3.40619C0.162974 3.69629 0 4.08974 0 4.5C0 4.91026 0.162974 5.30371 0.453069 5.59381C0.743164 5.8839 1.13662 6.04688 1.54688 6.04688H15.416C14.7466 7.9418 13.5141 10.9336 11.6339 13.6659C9.42539 10.7353 8.60484 8.83898 8.59852 8.82352C8.43683 8.44987 8.13436 8.15502 7.75671 8.00293C7.37905 7.85084 6.95666 7.85377 6.58115 8.01108C6.20564 8.16839 5.90729 8.4674 5.7508 8.84326C5.59432 9.21911 5.59232 9.64151 5.74523 10.0188C5.78602 10.1159 6.76828 12.4256 9.46195 15.9202C9.52664 16.0038 9.59062 16.0854 9.65461 16.167C6.89555 19.2853 4.18852 21.2196 3.05578 21.844C2.69559 22.0404 2.4282 22.3719 2.31243 22.7655C2.19665 23.1591 2.24198 23.5826 2.43844 23.9428C2.63489 24.303 2.96639 24.5704 3.36 24.6862C3.7536 24.8019 4.17708 24.7566 4.53727 24.5602C4.68914 24.4772 7.95445 22.6695 11.6831 18.5421C13.2666 20.2352 14.355 21.034 14.4204 21.0804C14.5849 21.1999 14.7714 21.2858 14.9692 21.3332C15.1669 21.3805 15.3721 21.3884 15.5729 21.3564C15.7737 21.3244 15.9662 21.2531 16.1395 21.1467C16.3127 21.0402 16.4633 20.9006 16.5825 20.7359V20.7366Z" fill="white"/>
</svg>
