<svg width="291" height="47" viewBox="0 0 291 47" fill="none" xmlns="http://www.w3.org/2000/svg">
<path d="M14.667 17.372C12.1294 17.372 10.1084 18.1692 8.60381 19.7636C7.09924 21.3356 6.34696 23.4801 6.34696 26.1973C6.34696 28.892 7.1217 31.0366 8.67117 32.631C10.2206 34.2254 12.2192 35.0226 14.667 35.0226C16.7105 35.0226 18.7091 34.405 20.6628 33.1699L22.0775 36.6394C19.8094 38.0991 17.1933 38.8289 14.2291 38.8289C10.3891 38.8289 7.31258 37.6949 4.99959 35.4268C2.68661 33.1363 1.53012 30.0598 1.53012 26.1973C1.53012 22.3124 2.66416 19.2359 4.93223 16.9678C7.2003 14.6998 10.2992 13.5657 14.2291 13.5657C17.1933 13.5657 19.8094 14.2956 22.0775 15.7552L20.6628 19.2247C18.7091 17.9896 16.7105 17.372 14.667 17.372ZM27.2096 23.0984C28.7815 21.4591 30.9036 20.6394 33.5759 20.6394C36.2482 20.6394 38.3703 21.4591 39.9422 23.0984C41.5142 24.7377 42.3001 26.9496 42.3001 29.7342C42.3001 32.5187 41.5142 34.7306 39.9422 36.3699C38.3703 38.0092 36.2482 38.8289 33.5759 38.8289C30.9036 38.8289 28.7815 38.0092 27.2096 36.3699C25.6601 34.7306 24.8854 32.5187 24.8854 29.7342C24.8854 26.9496 25.6601 24.7377 27.2096 23.0984ZM33.5759 35.4942C34.9457 35.4942 36.0124 35.0113 36.7759 34.0457C37.5394 33.0577 37.9212 31.6205 37.9212 29.7342C37.9212 27.8478 37.5394 26.4219 36.7759 25.4563C36.0124 24.4682 34.9457 23.9742 33.5759 23.9742C32.2285 23.9742 31.1731 24.4682 30.4096 25.4563C29.6461 26.4219 29.2643 27.8478 29.2643 29.7342C29.2643 31.6205 29.6461 33.0577 30.4096 34.0457C31.1731 35.0113 32.2285 35.4942 33.5759 35.4942ZM45.7683 20.9763H49.8778L49.9451 23.4352H50.0125C50.6862 22.5594 51.5171 21.8745 52.5051 21.3805C53.5156 20.8864 54.5486 20.6394 55.6041 20.6394C57.6251 20.6394 59.1072 21.2682 60.0504 22.5257C61.016 23.7608 61.4988 25.7931 61.4988 28.6226V38.4921H57.1872V29.0605C57.1872 27.1292 56.9627 25.8268 56.5135 25.1531C56.0644 24.457 55.256 24.1089 54.0883 24.1089C53.1002 24.1089 52.1907 24.6142 51.3599 25.6247C50.5514 26.6352 50.1472 27.8142 50.1472 29.1615V38.4921H45.7683V20.9763ZM69.1657 28.3194H77.3846C77.3621 26.8598 76.9916 25.7482 76.273 24.9847C75.5769 24.1987 74.5888 23.8057 73.3088 23.8057C72.0737 23.8057 71.0857 24.1987 70.3446 24.9847C69.626 25.7706 69.233 26.8822 69.1657 28.3194ZM69.1657 31.3173C69.2779 32.6422 69.7832 33.6977 70.6814 34.4836C71.6021 35.2471 72.7586 35.6289 74.1509 35.6289C75.8127 35.6289 77.4632 35.2135 79.1025 34.3826L80.113 37.4815C78.092 38.3798 75.9586 38.8289 73.713 38.8289C71.0632 38.8289 68.9074 38.0092 67.2457 36.3699C65.6064 34.7306 64.7867 32.5187 64.7867 29.7342C64.7867 26.9047 65.5502 24.6815 67.0772 23.0647C68.6042 21.4478 70.6702 20.6394 73.2751 20.6394C75.88 20.6394 77.9011 21.4142 79.3383 22.9636C80.7979 24.5131 81.5278 26.7363 81.5278 29.6331C81.5278 30.1945 81.4941 30.7559 81.4267 31.3173H69.1657ZM98.3725 34.3152L99.383 37.5826C97.5416 38.4135 95.6328 38.8289 93.6567 38.8289C90.8497 38.8289 88.5928 38.0092 86.8862 36.3699C85.1795 34.7306 84.3262 32.5187 84.3262 29.7342C84.3262 26.8822 85.1458 24.6591 86.7851 23.0647C88.4469 21.4478 90.7374 20.6394 93.6567 20.6394C95.6328 20.6394 97.5416 21.0549 99.383 21.8857L98.3725 25.2205C96.9578 24.412 95.4532 24.0078 93.8588 24.0078C92.2644 24.0078 91.0181 24.5019 90.1199 25.4899C89.2441 26.478 88.8062 27.8928 88.8062 29.7342C88.8062 31.5306 89.2665 32.9454 90.1872 33.9784C91.1304 35.0113 92.3542 35.5278 93.8588 35.5278C95.4757 35.5278 96.9802 35.1236 98.3725 34.3152ZM110.972 21.6499H117.001V24.9173H110.972V32.092C110.972 33.417 111.14 34.3152 111.477 34.7868C111.814 35.2359 112.42 35.4605 113.296 35.4605C114.374 35.4605 115.384 35.2696 116.327 34.8878L116.9 38.1552C115.508 38.6043 114.003 38.8289 112.386 38.8289C110.32 38.8289 108.816 38.3685 107.873 37.4478C106.952 36.5271 106.492 35.0001 106.492 32.8668V24.9173H102.854V21.6499H106.492V15.2499H110.972V21.6499ZM128.401 20.6394C131.073 20.6394 132.993 21.1671 134.161 22.2226C135.329 23.2556 135.913 24.9398 135.913 27.2752V33.7763C135.913 35.3706 136.081 36.9426 136.418 38.4921H132.275C132.14 37.751 132.039 36.8864 131.972 35.8984H131.904C131.276 36.8191 130.422 37.5377 129.344 38.0542C128.289 38.5706 127.132 38.8289 125.875 38.8289C124.236 38.8289 122.922 38.3798 121.934 37.4815C120.968 36.5608 120.485 35.292 120.485 33.6752C120.485 31.7215 121.305 30.1608 122.944 28.9931C124.606 27.8029 126.986 27.2078 130.085 27.2078H131.534V27.1068C131.534 25.9166 131.298 25.0857 130.826 24.6142C130.355 24.1426 129.513 23.9068 128.3 23.9068C126.099 23.9068 124.022 24.412 122.069 25.4226L121.429 22.1552C123.562 21.1447 125.886 20.6394 128.401 20.6394ZM124.595 33.3384C124.595 34.057 124.808 34.6184 125.235 35.0226C125.662 35.4268 126.245 35.6289 126.986 35.6289C128.266 35.6289 129.344 35.2135 130.22 34.3826C131.096 33.5517 131.534 32.5075 131.534 31.2499V30.1047H130.085C128.311 30.1047 126.953 30.4078 126.01 31.0142C125.066 31.598 124.595 32.3728 124.595 33.3384Z" fill="white"/>
<path d="M160.71 21.8857H160.643L155.253 32.3278H151.009L145.62 21.8857H145.552V38.4921H141.072V13.9026H145.788L153.097 28.3868H153.165L160.474 13.9026H165.325V38.4921H160.71V21.8857ZM171.318 17.271V13.2289H175.933V17.271H171.318ZM171.318 38.4921V20.9763H175.933V38.4921H171.318ZM187.485 20.6394C189.731 20.6394 191.55 21.5713 192.942 23.4352H193.01L193.111 20.9763H197.186V36.7068C197.186 43.0619 194.121 46.2394 187.991 46.2394C185.97 46.2394 184.061 45.9026 182.264 45.2289L183.039 41.9278C184.656 42.6015 186.273 42.9384 187.89 42.9384C189.641 42.9384 190.91 42.478 191.696 41.5573C192.482 40.6366 192.875 39.0535 192.875 36.8078V35.5615H192.808C191.528 37.2906 189.753 38.1552 187.485 38.1552C185.509 38.1552 183.859 37.3692 182.534 35.7973C181.231 34.2029 180.58 32.0696 180.58 29.3973C180.58 26.5678 181.186 24.4008 182.399 22.8963C183.634 21.3917 185.33 20.6394 187.485 20.6394ZM184.791 29.3973C184.791 31.0815 185.15 32.4064 185.869 33.372C186.61 34.3152 187.564 34.7868 188.732 34.7868C189.967 34.7868 190.955 34.3264 191.696 33.4057C192.437 32.485 192.808 31.205 192.808 29.5657V29.2289C192.808 27.5896 192.437 26.3096 191.696 25.3889C190.955 24.4682 189.967 24.0078 188.732 24.0078C187.497 24.0078 186.531 24.4682 185.835 25.3889C185.139 26.3096 184.791 27.6457 184.791 29.3973ZM201.821 20.9763H205.998L206.065 24.3447H206.132C208.131 21.8745 210.815 20.6394 214.183 20.6394V24.2099C211.69 24.2099 209.748 24.8163 208.356 26.0289C206.986 27.2191 206.301 28.8247 206.301 30.8457V38.4921H201.821V20.9763ZM224.224 20.6394C226.896 20.6394 228.816 21.1671 229.984 22.2226C231.151 23.2556 231.735 24.9398 231.735 27.2752V33.7763C231.735 35.3706 231.904 36.9426 232.24 38.4921H228.097C227.962 37.751 227.861 36.8864 227.794 35.8984H227.727C227.098 36.8191 226.245 37.5377 225.167 38.0542C224.111 38.5706 222.955 38.8289 221.697 38.8289C220.058 38.8289 218.744 38.3798 217.756 37.4815C216.791 36.5608 216.308 35.292 216.308 33.6752C216.308 31.7215 217.127 30.1608 218.767 28.9931C220.428 27.8029 222.809 27.2078 225.908 27.2078H227.356V27.1068C227.356 25.9166 227.12 25.0857 226.649 24.6142C226.177 24.1426 225.335 23.9068 224.122 23.9068C221.922 23.9068 219.845 24.412 217.891 25.4226L217.251 22.1552C219.384 21.1447 221.708 20.6394 224.224 20.6394ZM220.417 33.3384C220.417 34.057 220.631 34.6184 221.057 35.0226C221.484 35.4268 222.068 35.6289 222.809 35.6289C224.089 35.6289 225.167 35.2135 226.042 34.3826C226.918 33.5517 227.356 32.5075 227.356 31.2499V30.1047H225.908C224.134 30.1047 222.775 30.4078 221.832 31.0142C220.889 31.598 220.417 32.3728 220.417 33.3384ZM236.558 20.9763H240.667L240.735 23.4352H240.802C241.476 22.5594 242.307 21.8745 243.295 21.3805C244.305 20.8864 245.338 20.6394 246.394 20.6394C248.415 20.6394 249.897 21.2682 250.84 22.5257C251.805 23.7608 252.288 25.7931 252.288 28.6226V38.4921H247.977V29.0605C247.977 27.1292 247.752 25.8268 247.303 25.1531C246.854 24.457 246.045 24.1089 244.878 24.1089C243.89 24.1089 242.98 24.6142 242.149 25.6247C241.341 26.6352 240.937 27.8142 240.937 29.1615V38.4921H236.558V20.9763ZM263.373 21.6499H269.403V24.9173H263.373V32.092C263.373 33.417 263.541 34.3152 263.878 34.7868C264.215 35.2359 264.821 35.4605 265.697 35.4605C266.775 35.4605 267.786 35.2696 268.729 34.8878L269.301 38.1552C267.909 38.6043 266.405 38.8289 264.788 38.8289C262.722 38.8289 261.217 38.3685 260.274 37.4478C259.353 36.5271 258.893 35.0001 258.893 32.8668V24.9173H255.255V21.6499H258.893V15.2499H263.373V21.6499ZM276.929 28.3194H285.148C285.125 26.8598 284.755 25.7482 284.036 24.9847C283.34 24.1987 282.352 23.8057 281.072 23.8057C279.837 23.8057 278.849 24.1987 278.108 24.9847C277.389 25.7706 276.996 26.8822 276.929 28.3194ZM276.929 31.3173C277.041 32.6422 277.546 33.6977 278.445 34.4836C279.365 35.2471 280.522 35.6289 281.914 35.6289C283.576 35.6289 285.226 35.2135 286.866 34.3826L287.876 37.4815C285.855 38.3798 283.722 38.8289 281.476 38.8289C278.826 38.8289 276.671 38.0092 275.009 36.3699C273.37 34.7306 272.55 32.5187 272.55 29.7342C272.55 26.9047 273.313 24.6815 274.84 23.0647C276.367 21.4478 278.433 20.6394 281.038 20.6394C283.643 20.6394 285.664 21.4142 287.101 22.9636C288.561 24.5131 289.291 26.7363 289.291 29.6331C289.291 30.1945 289.257 30.7559 289.19 31.3173H276.929Z" fill="#7EBE4F"/>
<path d="M267.368 14.9523L261.053 8.97137L254.737 14.9523" stroke="#7EBE4F" stroke-width="2.63158" stroke-linecap="round" stroke-linejoin="round"/>
</svg>
