<svg width="33" height="35" viewBox="0 0 33 35" fill="none" xmlns="http://www.w3.org/2000/svg">
<path d="M0 2.14789V32.851C0.000205694 32.9176 0.0200733 32.9827 0.0571117 33.0381C0.09415 33.0934 0.14671 33.1366 0.208201 33.1622C0.269693 33.1879 0.337378 33.1947 0.402769 33.182C0.46816 33.1693 0.528346 33.1376 0.575781 33.0909L16.5625 17.5002L0.575781 1.90805C0.528346 1.86128 0.46816 1.82956 0.402769 1.81686C0.337378 1.80416 0.269693 1.81105 0.208201 1.83666C0.14671 1.86228 0.09415 1.90547 0.0571117 1.96084C0.0200733 2.01621 0.000205694 2.08128 0 2.14789ZM23.2656 11.094L3.22031 0.0502329L3.20781 0.0432017C2.8625 -0.144298 2.53437 0.322889 2.81719 0.594764L18.5305 15.6198L23.2656 11.094ZM2.81875 34.4057C2.53437 34.6776 2.8625 35.1448 3.20937 34.9573L3.22187 34.9502L23.2656 23.9065L18.5305 19.3791L2.81875 34.4057ZM31.3578 15.5471L25.7602 12.4643L20.4969 17.5002L25.7602 22.5338L31.3578 19.4534C32.8805 18.6119 32.8805 16.3885 31.3578 15.5471Z" fill="#7EBE4F"/>
</svg>
